<svg id="Layer_1" data-name="Layer 1" xmlns="http://www.w3.org/2000/svg" viewBox="0 0 139.68 21.72"><defs><style>.cls-1{fill:#708699;}.cls-2{fill:#222c3c;}.cls-3{fill:#f1ad1e;}</style></defs><title>DuruLogo</title><path class="cls-1" d="M88.19,25.83a2.25,2.25,0,0,0-2.45-1.91c-1.11,0-2.74.74-2.74,3.87,0,2,.78,3.78,2.74,3.78a2.35,2.35,0,0,0,2.45-2.08h2.32a4.61,4.61,0,0,1-4.82,4.09c-2.94,0-5-2-5-5.82s2.23-5.84,5.09-5.84c3.31,0,4.65,2.28,4.78,3.91Z" transform="translate(-30.13 -14.75)"/><path class="cls-1" d="M95.82,33.5a4,4,0,0,1-4.2-4.32,4.2,4.2,0,1,1,8.39,0A4,4,0,0,1,95.82,33.5Zm0-6.82c-1.67,0-2,1.45-2,2.5s.31,2.5,2,2.5,2-1.45,2-2.5S97.48,26.68,95.82,26.68Z" transform="translate(-30.13 -14.75)"/><path class="cls-1" d="M105.24,33.5a4,4,0,0,1-4.19-4.32,4.2,4.2,0,1,1,8.39,0A4,4,0,0,1,105.24,33.5Zm0-6.82c-1.66,0-2,1.45-2,2.5s.31,2.5,2,2.5,2-1.45,2-2.5S106.91,26.68,105.24,26.68Z" transform="translate(-30.13 -14.75)"/><path class="cls-1" d="M113,26.27h0a2.6,2.6,0,0,1,2.45-1.41c1.81,0,3.41,1.39,3.41,4.23,0,2.25-1,4.41-3.45,4.41a2.43,2.43,0,0,1-2.32-1.26h0v4.24H110.9V25.08H113Zm1.9,5.46c1.39,0,1.77-1.51,1.77-2.49,0-1.29-.46-2.51-1.83-2.51S113,28.06,113,29.37,113.5,31.73,114.87,31.73Z" transform="translate(-30.13 -14.75)"/><path class="cls-1" d="M127.43,30.88a3.56,3.56,0,0,1-3.61,2.62c-2.32,0-4.09-1.11-4.09-4.49,0-1,.34-4.15,3.93-4.15,1.62,0,3.86.77,3.86,4.52v.39h-5.63c.06.61.18,2,1.93,2a1.4,1.4,0,0,0,1.39-.89Zm-2.13-2.52a1.66,1.66,0,0,0-1.67-1.72c-1,0-1.56.64-1.68,1.72Z" transform="translate(-30.13 -14.75)"/><path class="cls-1" d="M128.94,25.08H131V26.5h0a2.39,2.39,0,0,1,2.25-1.64c.14,0,.28,0,.42,0v2.19a4.22,4.22,0,0,0-.62,0,1.75,1.75,0,0,0-2,2v4.28h-2.16Z" transform="translate(-30.13 -14.75)"/><path class="cls-1" d="M141.6,31.68c0,1,.22,1.19.48,1.28v.33h-2.33a4,4,0,0,1-.2-1,3.33,3.33,0,0,1-2.65,1.19,2.3,2.3,0,0,1-2.5-2.39,2.51,2.51,0,0,1,2.39-2.62l2-.3c.33,0,.75-.18.75-.64,0-.91-.86-1-1.42-1a1.15,1.15,0,0,0-1.32,1.14h-2.09c.25-2.51,2-2.87,3.67-2.87,1.16,0,3.27.36,3.27,2.38Zm-2.11-2.39a3.11,3.11,0,0,1-1.46.45c-.81.14-1.47.34-1.47,1.23a.94.94,0,0,0,1,1,1.79,1.79,0,0,0,1.93-1.62Z" transform="translate(-30.13 -14.75)"/><path class="cls-1" d="M146,25.08h1.34v1.54H146v4.46c0,.48,0,.66.89.66l.45,0v1.64l-1,0H146c-1.86,0-2.2-.71-2.2-1.78v-5h-1.11V25.08h1.11V22.86H146Z" transform="translate(-30.13 -14.75)"/><path class="cls-1" d="M150.89,24.11h-2.16v-2h2.16Zm0,1v8.21h-2.16V25.08Z" transform="translate(-30.13 -14.75)"/><path class="cls-1" d="M156.68,33.5a4,4,0,0,1-4.2-4.32,4.2,4.2,0,1,1,8.39,0A4,4,0,0,1,156.68,33.5Zm0-6.82c-1.67,0-2,1.45-2,2.5s.31,2.5,2,2.5,2-1.45,2-2.5S158.34,26.68,156.68,26.68Z" transform="translate(-30.13 -14.75)"/><path class="cls-1" d="M169.81,33.29h-2.16v-5c0-.6,0-1.62-1.41-1.62a1.68,1.68,0,0,0-1.69,1.9v4.71h-2.16V25.08h2.06v1.2h0A2.66,2.66,0,0,1,167,24.86a2.62,2.62,0,0,1,2.86,2.75Z" transform="translate(-30.13 -14.75)"/><path class="cls-2" d="M58.48,33.39H55.64V31.8h0a3.72,3.72,0,0,1-3.44,1.89c-2.22,0-3.83-1.27-3.83-4.15V22.12h3v7c0,1.74,1,2.08,1.92,2.08a2.25,2.25,0,0,0,2.29-2.57v-6.5h3Z" transform="translate(-30.13 -14.75)"/><path class="cls-2" d="M59.94,22.12h2.84v2.12h0C63.43,23.1,64.11,22,65.91,22a5.46,5.46,0,0,1,.57,0v3a5.77,5.77,0,0,0-.84,0c-2.31,0-2.74,1.26-2.74,2.51v5.87h-3Z" transform="translate(-30.13 -14.75)"/><path class="cls-2" d="M78.09,33.39H75.25V31.8h0a3.71,3.71,0,0,1-3.43,1.89c-2.23,0-3.84-1.27-3.84-4.15V22.12h3v7c0,1.74,1,2.08,1.93,2.08a2.25,2.25,0,0,0,2.28-2.57v-6.5h3Z" transform="translate(-30.13 -14.75)"/><rect class="cls-2" x="22.11" y="22.77" width="18.61" height="2.58" transform="translate(25.35 -22.11) rotate(90)"/><rect class="cls-2" x="0.01" width="2.56" height="2.58"/><rect class="cls-2" x="2.2" width="4.51" height="2.58"/><rect class="cls-2" x="0.01" y="16.05" width="2.56" height="2.58"/><rect class="cls-2" x="2.2" y="16.05" width="4.51" height="2.58"/><rect class="cls-2" x="0.01" y="4.16" width="2.56" height="2.58"/><rect class="cls-2" x="0.01" y="11.9" width="2.56" height="2.58"/><rect class="cls-3" x="4.04" y="11.99" width="2.67" height="2.67"/><path class="cls-2" d="M47,24.07a9.32,9.32,0,0,0-8.75-9.29v2.59a6.73,6.73,0,0,1,0,13.41v2.58A9.32,9.32,0,0,0,47,24.07Z" transform="translate(-30.13 -14.75)"/><path class="cls-3" d="M42.87,24a5.14,5.14,0,0,0-4.58-5.1v2.59a2.57,2.57,0,0,1,0,5V29.1A5.14,5.14,0,0,0,42.87,24Z" transform="translate(-30.13 -14.75)"/><rect class="cls-3" x="4.04" y="4.04" width="2.67" height="2.67"/></svg>