<svg xmlns="http://www.w3.org/2000/svg" width="32" height="48">
    <path fill="#CCC" fill-rule="evenodd" d="M15.997 47.998c-8.822 0-16-6.698-16-14.929V14.815c0-7.751 6.42-14.2 14.674-14.817h2.653c8.255.621 14.673 7.071 14.675 14.815v18.256c0 8.231-7.178 14.929-16.002 14.929zm13.001-32.893c0-6.682-5.832-12.118-13.003-12.118-7.166 0-13 5.436-13 12.118v17.766c0 6.683 5.834 12.119 13 12.119 7.171 0 13.003-5.436 13.003-12.119V15.105zm-13.001 6.9c-1.103 0-1.994-.881-1.994-1.966v-5.066c0-1.086.891-1.967 1.994-1.967s1.996.882 1.996 1.967v5.066c0 1.085-.894 1.966-1.996 1.966z"/>
</svg>
